<mxfile host="app.diagrams.net" agent="Mozilla/5.0 (Windows NT 10.0; Win64; x64) AppleWebKit/537.36 (KHTML, like Gecko) Chrome/128.0.0.0 Safari/537.36" border="50" scale="3" compressed="false" locked="false" version="24.7.8">
  <diagram name="Blank" id="YmL12bMKpDGza6XwsDPr">
    <mxGraphModel dx="1050" dy="653" grid="0" gridSize="10" guides="1" tooltips="1" connect="1" arrows="1" fold="1" page="0" pageScale="1" pageWidth="827" pageHeight="1169" background="none" math="1" shadow="0">
      <root>
        <mxCell id="X5NqExCQtvZxIxQ7pmgY-0" />
        <mxCell id="1" parent="X5NqExCQtvZxIxQ7pmgY-0" />
        <mxCell id="THYy7DSmvDCBNUBpc2qu-100" value="第五讲: 纵览全局, 尽致广大" style="whiteSpace=wrap;strokeWidth=2;" parent="1" vertex="1">
          <mxGeometry x="20" y="1021" width="214" height="33" as="geometry" />
        </mxCell>
        <mxCell id="THYy7DSmvDCBNUBpc2qu-101" value="整体 关系 比较" style="whiteSpace=wrap;strokeWidth=2;" parent="1" vertex="1">
          <mxGeometry x="334" y="62" width="122" height="33" as="geometry" />
        </mxCell>
        <mxCell id="THYy7DSmvDCBNUBpc2qu-102" value="知识点" style="whiteSpace=wrap;strokeWidth=2;" parent="1" vertex="1">
          <mxGeometry x="364" y="187" width="64" height="33" as="geometry" />
        </mxCell>
        <mxCell id="THYy7DSmvDCBNUBpc2qu-103" value="构成关系" style="whiteSpace=wrap;strokeWidth=2;" parent="1" vertex="1">
          <mxGeometry x="356" y="395" width="80" height="33" as="geometry" />
        </mxCell>
        <mxCell id="THYy7DSmvDCBNUBpc2qu-104" value="黑白灰关系" style="whiteSpace=wrap;strokeWidth=2;" parent="1" vertex="1">
          <mxGeometry x="348" y="646" width="95" height="33" as="geometry" />
        </mxCell>
        <mxCell id="THYy7DSmvDCBNUBpc2qu-105" value="点线面关系" style="whiteSpace=wrap;strokeWidth=2;" parent="1" vertex="1">
          <mxGeometry x="348" y="896" width="95" height="33" as="geometry" />
        </mxCell>
        <mxCell id="THYy7DSmvDCBNUBpc2qu-106" value="虚实关系" style="whiteSpace=wrap;strokeWidth=2;" parent="1" vertex="1">
          <mxGeometry x="356" y="1146" width="80" height="33" as="geometry" />
        </mxCell>
        <mxCell id="THYy7DSmvDCBNUBpc2qu-107" value="语言与表现" style="whiteSpace=wrap;strokeWidth=2;" parent="1" vertex="1">
          <mxGeometry x="348" y="1396" width="95" height="33" as="geometry" />
        </mxCell>
        <mxCell id="THYy7DSmvDCBNUBpc2qu-108" value="案例分析" style="whiteSpace=wrap;strokeWidth=2;" parent="1" vertex="1">
          <mxGeometry x="356" y="1730" width="80" height="33" as="geometry" />
        </mxCell>
        <mxCell id="THYy7DSmvDCBNUBpc2qu-109" value="创作人的主题思想和艺术特色" style="whiteSpace=wrap;strokeWidth=2;" parent="1" vertex="1">
          <mxGeometry x="284" y="2022" width="223" height="33" as="geometry" />
        </mxCell>
        <mxCell id="THYy7DSmvDCBNUBpc2qu-110" value="总结与思考" style="whiteSpace=wrap;strokeWidth=2;" parent="1" vertex="1">
          <mxGeometry x="348" y="2314" width="96" height="33" as="geometry" />
        </mxCell>
        <mxCell id="THYy7DSmvDCBNUBpc2qu-111" value="素描中的整体关系" style="whiteSpace=wrap;strokeWidth=2;" parent="1" vertex="1">
          <mxGeometry x="635" y="20" width="143" height="33" as="geometry" />
        </mxCell>
        <mxCell id="THYy7DSmvDCBNUBpc2qu-112" value="整理素描整体关系的方法" style="whiteSpace=wrap;strokeWidth=2;" parent="1" vertex="1">
          <mxGeometry x="639" y="103" width="192" height="33" as="geometry" />
        </mxCell>
        <mxCell id="THYy7DSmvDCBNUBpc2qu-113" value="构成关系, 黑白灰关系" style="whiteSpace=wrap;strokeWidth=2;" parent="1" vertex="1">
          <mxGeometry x="621" y="187" width="171" height="33" as="geometry" />
        </mxCell>
        <mxCell id="THYy7DSmvDCBNUBpc2qu-114" value="黑白色块的归纳" style="whiteSpace=wrap;strokeWidth=2;" parent="1" vertex="1">
          <mxGeometry x="643" y="270" width="127" height="33" as="geometry" />
        </mxCell>
        <mxCell id="THYy7DSmvDCBNUBpc2qu-115" value="构图线的强化" style="whiteSpace=wrap;strokeWidth=2;" parent="1" vertex="1">
          <mxGeometry x="650" y="395" width="113" height="33" as="geometry" />
        </mxCell>
        <mxCell id="THYy7DSmvDCBNUBpc2qu-116" value="视觉效果" style="whiteSpace=wrap;strokeWidth=2;" parent="1" vertex="1">
          <mxGeometry x="666" y="479" width="80" height="33" as="geometry" />
        </mxCell>
        <mxCell id="THYy7DSmvDCBNUBpc2qu-117" value="固有色的黑白灰关系" style="whiteSpace=wrap;strokeWidth=2;" parent="1" vertex="1">
          <mxGeometry x="627" y="562" width="159" height="33" as="geometry" />
        </mxCell>
        <mxCell id="THYy7DSmvDCBNUBpc2qu-118" value="空间黑白灰关系" style="whiteSpace=wrap;strokeWidth=2;" parent="1" vertex="1">
          <mxGeometry x="643" y="646" width="127" height="33" as="geometry" />
        </mxCell>
        <mxCell id="THYy7DSmvDCBNUBpc2qu-119" value="抽象构成的黑白灰关系" style="whiteSpace=wrap;strokeWidth=2;" parent="1" vertex="1">
          <mxGeometry x="618" y="729" width="176" height="33" as="geometry" />
        </mxCell>
        <mxCell id="THYy7DSmvDCBNUBpc2qu-120" value="点线面" style="whiteSpace=wrap;strokeWidth=2;" parent="1" vertex="1">
          <mxGeometry x="675" y="812" width="63" height="33" as="geometry" />
        </mxCell>
        <mxCell id="THYy7DSmvDCBNUBpc2qu-121" value="黑白灰基础元素" style="whiteSpace=wrap;strokeWidth=2;" parent="1" vertex="1">
          <mxGeometry x="643" y="896" width="127" height="33" as="geometry" />
        </mxCell>
        <mxCell id="THYy7DSmvDCBNUBpc2qu-122" value="点线面疏密关系" style="whiteSpace=wrap;strokeWidth=2;" parent="1" vertex="1">
          <mxGeometry x="643" y="979" width="127" height="33" as="geometry" />
        </mxCell>
        <mxCell id="THYy7DSmvDCBNUBpc2qu-123" value="虚实关系无处不在" style="whiteSpace=wrap;strokeWidth=2;" parent="1" vertex="1">
          <mxGeometry x="634" y="1063" width="144" height="33" as="geometry" />
        </mxCell>
        <mxCell id="THYy7DSmvDCBNUBpc2qu-124" value="客观虚实" style="whiteSpace=wrap;strokeWidth=2;" parent="1" vertex="1">
          <mxGeometry x="666" y="1146" width="80" height="33" as="geometry" />
        </mxCell>
        <mxCell id="THYy7DSmvDCBNUBpc2qu-125" value="主观虚实" style="whiteSpace=wrap;strokeWidth=2;" parent="1" vertex="1">
          <mxGeometry x="667" y="1229" width="79" height="33" as="geometry" />
        </mxCell>
        <mxCell id="THYy7DSmvDCBNUBpc2qu-126" value="素描语言" style="whiteSpace=wrap;strokeWidth=2;" parent="1" vertex="1">
          <mxGeometry x="667" y="1313" width="79" height="33" as="geometry" />
        </mxCell>
        <mxCell id="THYy7DSmvDCBNUBpc2qu-127" value="素描表现个性语言" style="whiteSpace=wrap;strokeWidth=2;" parent="1" vertex="1">
          <mxGeometry x="635" y="1396" width="143" height="33" as="geometry" />
        </mxCell>
        <mxCell id="THYy7DSmvDCBNUBpc2qu-128" value="静物素描作品" style="whiteSpace=wrap;strokeWidth=2;" parent="1" vertex="1">
          <mxGeometry x="651" y="1480" width="111" height="33" as="geometry" />
        </mxCell>
        <mxCell id="THYy7DSmvDCBNUBpc2qu-129" value="案例1: 摩托车和枪的对角线构图" style="whiteSpace=wrap;strokeWidth=2;" parent="1" vertex="1">
          <mxGeometry x="585" y="1563" width="242" height="33" as="geometry" />
        </mxCell>
        <mxCell id="THYy7DSmvDCBNUBpc2qu-130" value="案例2: 雕塑架的构图和视觉效果" style="whiteSpace=wrap;strokeWidth=2;" parent="1" vertex="1">
          <mxGeometry x="585" y="1646" width="243" height="33" as="geometry" />
        </mxCell>
        <mxCell id="THYy7DSmvDCBNUBpc2qu-131" value="案例3: 瓶子的质感与整体关系" style="whiteSpace=wrap;strokeWidth=2;" parent="1" vertex="1">
          <mxGeometry x="593" y="1730" width="226" height="33" as="geometry" />
        </mxCell>
        <mxCell id="THYy7DSmvDCBNUBpc2qu-132" value="案例4: 石膏人像的黑白灰关系" style="whiteSpace=wrap;strokeWidth=2;" parent="1" vertex="1">
          <mxGeometry x="593" y="1813" width="226" height="33" as="geometry" />
        </mxCell>
        <mxCell id="THYy7DSmvDCBNUBpc2qu-133" value="案例5: 玫瑰与手的情感表达" style="whiteSpace=wrap;strokeWidth=2;" parent="1" vertex="1">
          <mxGeometry x="601" y="1897" width="211" height="33" as="geometry" />
        </mxCell>
        <mxCell id="THYy7DSmvDCBNUBpc2qu-134" value="主题思想: 表现细节和整体的和谐" style="whiteSpace=wrap;strokeWidth=2;" parent="1" vertex="1">
          <mxGeometry x="581" y="1980" width="250" height="33" as="geometry" />
        </mxCell>
        <mxCell id="THYy7DSmvDCBNUBpc2qu-135" value="艺术特色: 精简的构图和深刻的情感表达" style="whiteSpace=wrap;strokeWidth=2;" parent="1" vertex="1">
          <mxGeometry x="557" y="2063" width="298" height="33" as="geometry" />
        </mxCell>
        <mxCell id="THYy7DSmvDCBNUBpc2qu-136" value="思考1: 如何保持创作热情" style="whiteSpace=wrap;strokeWidth=2;" parent="1" vertex="1">
          <mxGeometry x="608" y="2147" width="196" height="33" as="geometry" />
        </mxCell>
        <mxCell id="THYy7DSmvDCBNUBpc2qu-137" value="思考2: 黑白灰关系的主观处理" style="whiteSpace=wrap;strokeWidth=2;" parent="1" vertex="1">
          <mxGeometry x="592" y="2230" width="228" height="33" as="geometry" />
        </mxCell>
        <mxCell id="THYy7DSmvDCBNUBpc2qu-138" value="思考3: 点线面的运用和疏密关系" style="whiteSpace=wrap;strokeWidth=2;" parent="1" vertex="1">
          <mxGeometry x="585" y="2314" width="243" height="33" as="geometry" />
        </mxCell>
        <mxCell id="THYy7DSmvDCBNUBpc2qu-139" value="思考4: 虚实关系的主观和客观处理" style="whiteSpace=wrap;strokeWidth=2;" parent="1" vertex="1">
          <mxGeometry x="576" y="2397" width="260" height="33" as="geometry" />
        </mxCell>
        <mxCell id="THYy7DSmvDCBNUBpc2qu-140" value="思考5: 素描语言的延展性和表现力" style="whiteSpace=wrap;strokeWidth=2;" parent="1" vertex="1">
          <mxGeometry x="577" y="2480" width="259" height="33" as="geometry" />
        </mxCell>
        <mxCell id="THYy7DSmvDCBNUBpc2qu-141" value="关系到素描作品好坏的第一重要内容" style="whiteSpace=wrap;strokeWidth=2;" parent="1" vertex="1">
          <mxGeometry x="905" y="20" width="271" height="33" as="geometry" />
        </mxCell>
        <mxCell id="THYy7DSmvDCBNUBpc2qu-142" value="随时进行比较" style="whiteSpace=wrap;strokeWidth=2;" parent="1" vertex="1">
          <mxGeometry x="985" y="103" width="112" height="33" as="geometry" />
        </mxCell>
        <mxCell id="THYy7DSmvDCBNUBpc2qu-143" value="黑白色块的简化" style="whiteSpace=wrap;strokeWidth=2;" parent="1" vertex="1">
          <mxGeometry x="977" y="229" width="128" height="33" as="geometry" />
        </mxCell>
        <mxCell id="THYy7DSmvDCBNUBpc2qu-144" value="抽象构图" style="whiteSpace=wrap;strokeWidth=2;" parent="1" vertex="1">
          <mxGeometry x="1001" y="312" width="80" height="33" as="geometry" />
        </mxCell>
        <mxCell id="THYy7DSmvDCBNUBpc2qu-145" value="线的强化和视觉效果" style="whiteSpace=wrap;strokeWidth=2;" parent="1" vertex="1">
          <mxGeometry x="961" y="395" width="160" height="33" as="geometry" />
        </mxCell>
        <mxCell id="THYy7DSmvDCBNUBpc2qu-146" value="整体的视觉美感" style="whiteSpace=wrap;strokeWidth=2;" parent="1" vertex="1">
          <mxGeometry x="977" y="479" width="129" height="33" as="geometry" />
        </mxCell>
        <mxCell id="THYy7DSmvDCBNUBpc2qu-147" value="点线面的构成" style="whiteSpace=wrap;strokeWidth=2;" parent="1" vertex="1">
          <mxGeometry x="985" y="646" width="112" height="33" as="geometry" />
        </mxCell>
        <mxCell id="THYy7DSmvDCBNUBpc2qu-148" value="线的运用" style="whiteSpace=wrap;strokeWidth=2;" parent="1" vertex="1">
          <mxGeometry x="1001" y="812" width="79" height="33" as="geometry" />
        </mxCell>
        <mxCell id="THYy7DSmvDCBNUBpc2qu-149" value="面的运用" style="whiteSpace=wrap;strokeWidth=2;" parent="1" vertex="1">
          <mxGeometry x="1001" y="937" width="79" height="33" as="geometry" />
        </mxCell>
        <mxCell id="THYy7DSmvDCBNUBpc2qu-150" value="客观叙事" style="whiteSpace=wrap;strokeWidth=2;" parent="1" vertex="1">
          <mxGeometry x="1001" y="1021" width="81" height="33" as="geometry" />
        </mxCell>
        <mxCell id="THYy7DSmvDCBNUBpc2qu-151" value="主观叙事" style="whiteSpace=wrap;strokeWidth=2;" parent="1" vertex="1">
          <mxGeometry x="1001" y="1146" width="80" height="33" as="geometry" />
        </mxCell>
        <mxCell id="THYy7DSmvDCBNUBpc2qu-152" value="艺术风格形成的基础" style="whiteSpace=wrap;strokeWidth=2;" parent="1" vertex="1">
          <mxGeometry x="961" y="1313" width="159" height="33" as="geometry" />
        </mxCell>
        <mxCell id="THYy7DSmvDCBNUBpc2qu-153" value="艺术家成熟的标志" style="whiteSpace=wrap;strokeWidth=2;" parent="1" vertex="1">
          <mxGeometry x="969" y="1396" width="143" height="33" as="geometry" />
        </mxCell>
        <mxCell id="THYy7DSmvDCBNUBpc2qu-154" value="优秀艺术作品" style="whiteSpace=wrap;strokeWidth=2;" parent="1" vertex="1">
          <mxGeometry x="985" y="1480" width="111" height="33" as="geometry" />
        </mxCell>
        <mxCell id="THYy7DSmvDCBNUBpc2qu-155" value="" style="curved=1;startArrow=none;endArrow=block;exitX=0.51;exitY=-0.01;entryX=0;entryY=0.5;rounded=0;" parent="1" source="THYy7DSmvDCBNUBpc2qu-100" target="THYy7DSmvDCBNUBpc2qu-101" edge="1">
          <mxGeometry relative="1" as="geometry">
            <Array as="points">
              <mxPoint x="259" y="78" />
            </Array>
          </mxGeometry>
        </mxCell>
        <mxCell id="THYy7DSmvDCBNUBpc2qu-156" value="" style="curved=1;startArrow=none;endArrow=block;exitX=0.51;exitY=-0.01;entryX=-0.01;entryY=0.5;rounded=0;" parent="1" source="THYy7DSmvDCBNUBpc2qu-100" target="THYy7DSmvDCBNUBpc2qu-102" edge="1">
          <mxGeometry relative="1" as="geometry">
            <Array as="points">
              <mxPoint x="259" y="204" />
            </Array>
          </mxGeometry>
        </mxCell>
        <mxCell id="THYy7DSmvDCBNUBpc2qu-157" value="" style="curved=1;startArrow=none;endArrow=block;exitX=0.52;exitY=-0.01;entryX=-0.01;entryY=0.52;rounded=0;" parent="1" source="THYy7DSmvDCBNUBpc2qu-100" target="THYy7DSmvDCBNUBpc2qu-103" edge="1">
          <mxGeometry relative="1" as="geometry">
            <Array as="points">
              <mxPoint x="259" y="412" />
            </Array>
          </mxGeometry>
        </mxCell>
        <mxCell id="THYy7DSmvDCBNUBpc2qu-158" value="" style="curved=1;startArrow=none;endArrow=block;exitX=0.53;exitY=-0.01;entryX=0;entryY=0.49;rounded=0;" parent="1" source="THYy7DSmvDCBNUBpc2qu-100" target="THYy7DSmvDCBNUBpc2qu-104" edge="1">
          <mxGeometry relative="1" as="geometry">
            <Array as="points">
              <mxPoint x="259" y="662" />
            </Array>
          </mxGeometry>
        </mxCell>
        <mxCell id="THYy7DSmvDCBNUBpc2qu-159" value="" style="curved=1;startArrow=none;endArrow=block;exitX=0.58;exitY=-0.01;entryX=0;entryY=0.5;rounded=0;" parent="1" source="THYy7DSmvDCBNUBpc2qu-100" target="THYy7DSmvDCBNUBpc2qu-105" edge="1">
          <mxGeometry relative="1" as="geometry">
            <Array as="points">
              <mxPoint x="259" y="912" />
            </Array>
          </mxGeometry>
        </mxCell>
        <mxCell id="THYy7DSmvDCBNUBpc2qu-160" value="" style="curved=1;startArrow=none;endArrow=block;exitX=0.58;exitY=1.01;entryX=-0.01;entryY=0.5;rounded=0;" parent="1" source="THYy7DSmvDCBNUBpc2qu-100" target="THYy7DSmvDCBNUBpc2qu-106" edge="1">
          <mxGeometry relative="1" as="geometry">
            <Array as="points">
              <mxPoint x="259" y="1163" />
            </Array>
          </mxGeometry>
        </mxCell>
        <mxCell id="THYy7DSmvDCBNUBpc2qu-161" value="" style="curved=1;startArrow=none;endArrow=block;exitX=0.53;exitY=1.01;entryX=0;entryY=0.51;rounded=0;" parent="1" source="THYy7DSmvDCBNUBpc2qu-100" target="THYy7DSmvDCBNUBpc2qu-107" edge="1">
          <mxGeometry relative="1" as="geometry">
            <Array as="points">
              <mxPoint x="259" y="1413" />
            </Array>
          </mxGeometry>
        </mxCell>
        <mxCell id="THYy7DSmvDCBNUBpc2qu-162" value="" style="curved=1;startArrow=none;endArrow=block;exitX=0.51;exitY=1.01;entryX=-0.01;entryY=0.5;rounded=0;" parent="1" source="THYy7DSmvDCBNUBpc2qu-100" target="THYy7DSmvDCBNUBpc2qu-108" edge="1">
          <mxGeometry relative="1" as="geometry">
            <Array as="points">
              <mxPoint x="259" y="1746" />
            </Array>
          </mxGeometry>
        </mxCell>
        <mxCell id="THYy7DSmvDCBNUBpc2qu-163" value="" style="curved=1;startArrow=none;endArrow=block;exitX=0.51;exitY=1.01;entryX=0;entryY=0.49;rounded=0;" parent="1" source="THYy7DSmvDCBNUBpc2qu-100" target="THYy7DSmvDCBNUBpc2qu-109" edge="1">
          <mxGeometry relative="1" as="geometry">
            <Array as="points">
              <mxPoint x="259" y="2038" />
            </Array>
          </mxGeometry>
        </mxCell>
        <mxCell id="THYy7DSmvDCBNUBpc2qu-164" value="" style="curved=1;startArrow=none;endArrow=block;exitX=0.51;exitY=1.01;entryX=0;entryY=0.49;rounded=0;" parent="1" source="THYy7DSmvDCBNUBpc2qu-100" target="THYy7DSmvDCBNUBpc2qu-110" edge="1">
          <mxGeometry relative="1" as="geometry">
            <Array as="points">
              <mxPoint x="259" y="2330" />
            </Array>
          </mxGeometry>
        </mxCell>
        <mxCell id="THYy7DSmvDCBNUBpc2qu-165" value="" style="curved=1;startArrow=none;endArrow=block;exitX=0.95;exitY=-0.01;entryX=0;entryY=0.51;rounded=0;" parent="1" source="THYy7DSmvDCBNUBpc2qu-101" target="THYy7DSmvDCBNUBpc2qu-111" edge="1">
          <mxGeometry relative="1" as="geometry">
            <Array as="points">
              <mxPoint x="532" y="37" />
            </Array>
          </mxGeometry>
        </mxCell>
        <mxCell id="THYy7DSmvDCBNUBpc2qu-166" value="" style="curved=1;startArrow=none;endArrow=block;exitX=0.95;exitY=1;entryX=0;entryY=0.52;rounded=0;" parent="1" source="THYy7DSmvDCBNUBpc2qu-101" target="THYy7DSmvDCBNUBpc2qu-112" edge="1">
          <mxGeometry relative="1" as="geometry">
            <Array as="points">
              <mxPoint x="532" y="120" />
            </Array>
          </mxGeometry>
        </mxCell>
        <mxCell id="THYy7DSmvDCBNUBpc2qu-167" value="" style="curved=1;startArrow=none;endArrow=block;exitX=0.99;exitY=0.5;entryX=0;entryY=0.5;rounded=0;" parent="1" source="THYy7DSmvDCBNUBpc2qu-102" target="THYy7DSmvDCBNUBpc2qu-113" edge="1">
          <mxGeometry relative="1" as="geometry">
            <Array as="points" />
          </mxGeometry>
        </mxCell>
        <mxCell id="THYy7DSmvDCBNUBpc2qu-168" value="" style="curved=1;startArrow=none;endArrow=block;exitX=0.72;exitY=0.01;entryX=0;entryY=0.51;rounded=0;" parent="1" source="THYy7DSmvDCBNUBpc2qu-103" target="THYy7DSmvDCBNUBpc2qu-114" edge="1">
          <mxGeometry relative="1" as="geometry">
            <Array as="points">
              <mxPoint x="532" y="287" />
            </Array>
          </mxGeometry>
        </mxCell>
        <mxCell id="THYy7DSmvDCBNUBpc2qu-169" value="" style="curved=1;startArrow=none;endArrow=block;exitX=0.99;exitY=0.52;entryX=0;entryY=0.52;rounded=0;" parent="1" source="THYy7DSmvDCBNUBpc2qu-103" target="THYy7DSmvDCBNUBpc2qu-115" edge="1">
          <mxGeometry relative="1" as="geometry">
            <Array as="points" />
          </mxGeometry>
        </mxCell>
        <mxCell id="THYy7DSmvDCBNUBpc2qu-170" value="" style="curved=1;startArrow=none;endArrow=block;exitX=0.84;exitY=1.02;entryX=0;entryY=0.5;rounded=0;" parent="1" source="THYy7DSmvDCBNUBpc2qu-103" target="THYy7DSmvDCBNUBpc2qu-116" edge="1">
          <mxGeometry relative="1" as="geometry">
            <Array as="points">
              <mxPoint x="532" y="495" />
            </Array>
          </mxGeometry>
        </mxCell>
        <mxCell id="THYy7DSmvDCBNUBpc2qu-171" value="" style="curved=1;startArrow=none;endArrow=block;exitX=0.79;exitY=-0.02;entryX=0;entryY=0.51;rounded=0;" parent="1" source="THYy7DSmvDCBNUBpc2qu-104" target="THYy7DSmvDCBNUBpc2qu-117" edge="1">
          <mxGeometry relative="1" as="geometry">
            <Array as="points">
              <mxPoint x="532" y="579" />
            </Array>
          </mxGeometry>
        </mxCell>
        <mxCell id="THYy7DSmvDCBNUBpc2qu-172" value="" style="curved=1;startArrow=none;endArrow=block;exitX=1;exitY=0.49;entryX=0;entryY=0.49;rounded=0;" parent="1" source="THYy7DSmvDCBNUBpc2qu-104" target="THYy7DSmvDCBNUBpc2qu-118" edge="1">
          <mxGeometry relative="1" as="geometry">
            <Array as="points" />
          </mxGeometry>
        </mxCell>
        <mxCell id="THYy7DSmvDCBNUBpc2qu-173" value="" style="curved=1;startArrow=none;endArrow=block;exitX=0.79;exitY=1;entryX=0;entryY=0.5;rounded=0;" parent="1" source="THYy7DSmvDCBNUBpc2qu-104" target="THYy7DSmvDCBNUBpc2qu-119" edge="1">
          <mxGeometry relative="1" as="geometry">
            <Array as="points">
              <mxPoint x="532" y="746" />
            </Array>
          </mxGeometry>
        </mxCell>
        <mxCell id="THYy7DSmvDCBNUBpc2qu-174" value="" style="curved=1;startArrow=none;endArrow=block;exitX=0.79;exitY=-0.01;entryX=0;entryY=0.52;rounded=0;" parent="1" source="THYy7DSmvDCBNUBpc2qu-105" target="THYy7DSmvDCBNUBpc2qu-120" edge="1">
          <mxGeometry relative="1" as="geometry">
            <Array as="points">
              <mxPoint x="532" y="829" />
            </Array>
          </mxGeometry>
        </mxCell>
        <mxCell id="THYy7DSmvDCBNUBpc2qu-175" value="" style="curved=1;startArrow=none;endArrow=block;exitX=1;exitY=0.5;entryX=0;entryY=0.5;rounded=0;" parent="1" source="THYy7DSmvDCBNUBpc2qu-105" target="THYy7DSmvDCBNUBpc2qu-121" edge="1">
          <mxGeometry relative="1" as="geometry">
            <Array as="points" />
          </mxGeometry>
        </mxCell>
        <mxCell id="THYy7DSmvDCBNUBpc2qu-176" value="" style="curved=1;startArrow=none;endArrow=block;exitX=0.79;exitY=1;entryX=0;entryY=0.51;rounded=0;" parent="1" source="THYy7DSmvDCBNUBpc2qu-105" target="THYy7DSmvDCBNUBpc2qu-122" edge="1">
          <mxGeometry relative="1" as="geometry">
            <Array as="points">
              <mxPoint x="532" y="996" />
            </Array>
          </mxGeometry>
        </mxCell>
        <mxCell id="THYy7DSmvDCBNUBpc2qu-177" value="" style="curved=1;startArrow=none;endArrow=block;exitX=0.84;exitY=0;entryX=0;entryY=0.49;rounded=0;" parent="1" source="THYy7DSmvDCBNUBpc2qu-106" target="THYy7DSmvDCBNUBpc2qu-123" edge="1">
          <mxGeometry relative="1" as="geometry">
            <Array as="points">
              <mxPoint x="532" y="1079" />
            </Array>
          </mxGeometry>
        </mxCell>
        <mxCell id="THYy7DSmvDCBNUBpc2qu-178" value="" style="curved=1;startArrow=none;endArrow=block;exitX=0.99;exitY=0.5;entryX=0;entryY=0.5;rounded=0;" parent="1" source="THYy7DSmvDCBNUBpc2qu-106" target="THYy7DSmvDCBNUBpc2qu-124" edge="1">
          <mxGeometry relative="1" as="geometry">
            <Array as="points" />
          </mxGeometry>
        </mxCell>
        <mxCell id="THYy7DSmvDCBNUBpc2qu-179" value="" style="curved=1;startArrow=none;endArrow=block;exitX=0.84;exitY=1.01;entryX=0;entryY=0.52;rounded=0;" parent="1" source="THYy7DSmvDCBNUBpc2qu-106" target="THYy7DSmvDCBNUBpc2qu-125" edge="1">
          <mxGeometry relative="1" as="geometry">
            <Array as="points">
              <mxPoint x="532" y="1246" />
            </Array>
          </mxGeometry>
        </mxCell>
        <mxCell id="THYy7DSmvDCBNUBpc2qu-180" value="" style="curved=1;startArrow=none;endArrow=block;exitX=0.79;exitY=0;entryX=0;entryY=0.5;rounded=0;" parent="1" source="THYy7DSmvDCBNUBpc2qu-107" target="THYy7DSmvDCBNUBpc2qu-126" edge="1">
          <mxGeometry relative="1" as="geometry">
            <Array as="points">
              <mxPoint x="532" y="1329" />
            </Array>
          </mxGeometry>
        </mxCell>
        <mxCell id="THYy7DSmvDCBNUBpc2qu-181" value="" style="curved=1;startArrow=none;endArrow=block;exitX=1;exitY=0.51;entryX=0;entryY=0.51;rounded=0;" parent="1" source="THYy7DSmvDCBNUBpc2qu-107" target="THYy7DSmvDCBNUBpc2qu-127" edge="1">
          <mxGeometry relative="1" as="geometry">
            <Array as="points" />
          </mxGeometry>
        </mxCell>
        <mxCell id="THYy7DSmvDCBNUBpc2qu-182" value="" style="curved=1;startArrow=none;endArrow=block;exitX=0.79;exitY=1.02;entryX=0;entryY=0.49;rounded=0;" parent="1" source="THYy7DSmvDCBNUBpc2qu-107" target="THYy7DSmvDCBNUBpc2qu-128" edge="1">
          <mxGeometry relative="1" as="geometry">
            <Array as="points">
              <mxPoint x="532" y="1496" />
            </Array>
          </mxGeometry>
        </mxCell>
        <mxCell id="THYy7DSmvDCBNUBpc2qu-183" value="" style="curved=1;startArrow=none;endArrow=block;exitX=0.66;exitY=-0.01;entryX=0;entryY=0.5;rounded=0;" parent="1" source="THYy7DSmvDCBNUBpc2qu-108" target="THYy7DSmvDCBNUBpc2qu-129" edge="1">
          <mxGeometry relative="1" as="geometry">
            <Array as="points">
              <mxPoint x="532" y="1580" />
            </Array>
          </mxGeometry>
        </mxCell>
        <mxCell id="THYy7DSmvDCBNUBpc2qu-184" value="" style="curved=1;startArrow=none;endArrow=block;exitX=0.84;exitY=-0.01;entryX=0;entryY=0.52;rounded=0;" parent="1" source="THYy7DSmvDCBNUBpc2qu-108" target="THYy7DSmvDCBNUBpc2qu-130" edge="1">
          <mxGeometry relative="1" as="geometry">
            <Array as="points">
              <mxPoint x="532" y="1663" />
            </Array>
          </mxGeometry>
        </mxCell>
        <mxCell id="THYy7DSmvDCBNUBpc2qu-185" value="" style="curved=1;startArrow=none;endArrow=block;exitX=0.99;exitY=0.5;entryX=0;entryY=0.5;rounded=0;" parent="1" source="THYy7DSmvDCBNUBpc2qu-108" target="THYy7DSmvDCBNUBpc2qu-131" edge="1">
          <mxGeometry relative="1" as="geometry">
            <Array as="points" />
          </mxGeometry>
        </mxCell>
        <mxCell id="THYy7DSmvDCBNUBpc2qu-186" value="" style="curved=1;startArrow=none;endArrow=block;exitX=0.84;exitY=1;entryX=0;entryY=0.51;rounded=0;" parent="1" source="THYy7DSmvDCBNUBpc2qu-108" target="THYy7DSmvDCBNUBpc2qu-132" edge="1">
          <mxGeometry relative="1" as="geometry">
            <Array as="points">
              <mxPoint x="532" y="1830" />
            </Array>
          </mxGeometry>
        </mxCell>
        <mxCell id="THYy7DSmvDCBNUBpc2qu-187" value="" style="curved=1;startArrow=none;endArrow=block;exitX=0.66;exitY=1;entryX=0;entryY=0.49;rounded=0;" parent="1" source="THYy7DSmvDCBNUBpc2qu-108" target="THYy7DSmvDCBNUBpc2qu-133" edge="1">
          <mxGeometry relative="1" as="geometry">
            <Array as="points">
              <mxPoint x="532" y="1913" />
            </Array>
          </mxGeometry>
        </mxCell>
        <mxCell id="THYy7DSmvDCBNUBpc2qu-188" value="" style="curved=1;startArrow=none;endArrow=block;exitX=0.75;exitY=-0.01;entryX=0;entryY=0.5;rounded=0;" parent="1" source="THYy7DSmvDCBNUBpc2qu-109" target="THYy7DSmvDCBNUBpc2qu-134" edge="1">
          <mxGeometry relative="1" as="geometry">
            <Array as="points">
              <mxPoint x="532" y="1997" />
            </Array>
          </mxGeometry>
        </mxCell>
        <mxCell id="THYy7DSmvDCBNUBpc2qu-189" value="" style="curved=1;startArrow=none;endArrow=block;exitX=0.75;exitY=1;entryX=0;entryY=0.52;rounded=0;" parent="1" source="THYy7DSmvDCBNUBpc2qu-109" target="THYy7DSmvDCBNUBpc2qu-135" edge="1">
          <mxGeometry relative="1" as="geometry">
            <Array as="points">
              <mxPoint x="532" y="2080" />
            </Array>
          </mxGeometry>
        </mxCell>
        <mxCell id="THYy7DSmvDCBNUBpc2qu-190" value="" style="curved=1;startArrow=none;endArrow=block;exitX=0.64;exitY=-0.02;entryX=0;entryY=0.5;rounded=0;" parent="1" source="THYy7DSmvDCBNUBpc2qu-110" target="THYy7DSmvDCBNUBpc2qu-136" edge="1">
          <mxGeometry relative="1" as="geometry">
            <Array as="points">
              <mxPoint x="532" y="2163" />
            </Array>
          </mxGeometry>
        </mxCell>
        <mxCell id="THYy7DSmvDCBNUBpc2qu-191" value="" style="curved=1;startArrow=none;endArrow=block;exitX=0.78;exitY=-0.02;entryX=0;entryY=0.51;rounded=0;" parent="1" source="THYy7DSmvDCBNUBpc2qu-110" target="THYy7DSmvDCBNUBpc2qu-137" edge="1">
          <mxGeometry relative="1" as="geometry">
            <Array as="points">
              <mxPoint x="532" y="2247" />
            </Array>
          </mxGeometry>
        </mxCell>
        <mxCell id="THYy7DSmvDCBNUBpc2qu-192" value="" style="curved=1;startArrow=none;endArrow=block;exitX=0.99;exitY=0.49;entryX=0;entryY=0.49;rounded=0;" parent="1" source="THYy7DSmvDCBNUBpc2qu-110" target="THYy7DSmvDCBNUBpc2qu-138" edge="1">
          <mxGeometry relative="1" as="geometry">
            <Array as="points" />
          </mxGeometry>
        </mxCell>
        <mxCell id="THYy7DSmvDCBNUBpc2qu-193" value="" style="curved=1;startArrow=none;endArrow=block;exitX=0.78;exitY=1;entryX=0;entryY=0.5;rounded=0;" parent="1" source="THYy7DSmvDCBNUBpc2qu-110" target="THYy7DSmvDCBNUBpc2qu-139" edge="1">
          <mxGeometry relative="1" as="geometry">
            <Array as="points">
              <mxPoint x="532" y="2414" />
            </Array>
          </mxGeometry>
        </mxCell>
        <mxCell id="THYy7DSmvDCBNUBpc2qu-194" value="" style="curved=1;startArrow=none;endArrow=block;exitX=0.64;exitY=1;entryX=0;entryY=0.52;rounded=0;" parent="1" source="THYy7DSmvDCBNUBpc2qu-110" target="THYy7DSmvDCBNUBpc2qu-140" edge="1">
          <mxGeometry relative="1" as="geometry">
            <Array as="points">
              <mxPoint x="532" y="2497" />
            </Array>
          </mxGeometry>
        </mxCell>
        <mxCell id="THYy7DSmvDCBNUBpc2qu-195" value="" style="curved=1;startArrow=none;endArrow=block;exitX=1;exitY=0.51;entryX=0;entryY=0.51;rounded=0;" parent="1" source="THYy7DSmvDCBNUBpc2qu-111" target="THYy7DSmvDCBNUBpc2qu-141" edge="1">
          <mxGeometry relative="1" as="geometry">
            <Array as="points" />
          </mxGeometry>
        </mxCell>
        <mxCell id="THYy7DSmvDCBNUBpc2qu-196" value="" style="curved=1;startArrow=none;endArrow=block;exitX=1;exitY=0.52;entryX=0;entryY=0.52;rounded=0;" parent="1" source="THYy7DSmvDCBNUBpc2qu-112" target="THYy7DSmvDCBNUBpc2qu-142" edge="1">
          <mxGeometry relative="1" as="geometry">
            <Array as="points" />
          </mxGeometry>
        </mxCell>
        <mxCell id="THYy7DSmvDCBNUBpc2qu-197" value="" style="curved=1;startArrow=none;endArrow=block;exitX=1;exitY=0.05;entryX=0;entryY=0.49;rounded=0;" parent="1" source="THYy7DSmvDCBNUBpc2qu-114" target="THYy7DSmvDCBNUBpc2qu-143" edge="1">
          <mxGeometry relative="1" as="geometry">
            <Array as="points">
              <mxPoint x="880" y="245" />
            </Array>
          </mxGeometry>
        </mxCell>
        <mxCell id="THYy7DSmvDCBNUBpc2qu-198" value="" style="curved=1;startArrow=none;endArrow=block;exitX=1;exitY=0.97;entryX=0;entryY=0.5;rounded=0;" parent="1" source="THYy7DSmvDCBNUBpc2qu-114" target="THYy7DSmvDCBNUBpc2qu-144" edge="1">
          <mxGeometry relative="1" as="geometry">
            <Array as="points">
              <mxPoint x="880" y="329" />
            </Array>
          </mxGeometry>
        </mxCell>
        <mxCell id="THYy7DSmvDCBNUBpc2qu-199" value="" style="curved=1;startArrow=none;endArrow=block;exitX=1;exitY=0.52;entryX=0;entryY=0.52;rounded=0;" parent="1" source="THYy7DSmvDCBNUBpc2qu-115" target="THYy7DSmvDCBNUBpc2qu-145" edge="1">
          <mxGeometry relative="1" as="geometry">
            <Array as="points" />
          </mxGeometry>
        </mxCell>
        <mxCell id="THYy7DSmvDCBNUBpc2qu-200" value="" style="curved=1;startArrow=none;endArrow=block;exitX=1;exitY=0.5;entryX=0;entryY=0.5;rounded=0;" parent="1" source="THYy7DSmvDCBNUBpc2qu-116" target="THYy7DSmvDCBNUBpc2qu-146" edge="1">
          <mxGeometry relative="1" as="geometry">
            <Array as="points" />
          </mxGeometry>
        </mxCell>
        <mxCell id="THYy7DSmvDCBNUBpc2qu-201" value="" style="curved=1;startArrow=none;endArrow=block;exitX=0.77;exitY=0.01;entryX=0;entryY=0.49;rounded=0;" parent="1" source="THYy7DSmvDCBNUBpc2qu-120" target="THYy7DSmvDCBNUBpc2qu-147" edge="1">
          <mxGeometry relative="1" as="geometry">
            <Array as="points">
              <mxPoint x="880" y="662" />
            </Array>
          </mxGeometry>
        </mxCell>
        <mxCell id="THYy7DSmvDCBNUBpc2qu-202" value="" style="curved=1;startArrow=none;endArrow=block;exitX=1;exitY=0.52;entryX=0.01;entryY=0.52;rounded=0;" parent="1" source="THYy7DSmvDCBNUBpc2qu-120" target="THYy7DSmvDCBNUBpc2qu-148" edge="1">
          <mxGeometry relative="1" as="geometry">
            <Array as="points" />
          </mxGeometry>
        </mxCell>
        <mxCell id="THYy7DSmvDCBNUBpc2qu-203" value="" style="curved=1;startArrow=none;endArrow=block;exitX=0.87;exitY=1.02;entryX=0.01;entryY=0.52;rounded=0;" parent="1" source="THYy7DSmvDCBNUBpc2qu-120" target="THYy7DSmvDCBNUBpc2qu-149" edge="1">
          <mxGeometry relative="1" as="geometry">
            <Array as="points">
              <mxPoint x="880" y="954" />
            </Array>
          </mxGeometry>
        </mxCell>
        <mxCell id="THYy7DSmvDCBNUBpc2qu-204" value="" style="curved=1;startArrow=none;endArrow=block;exitX=0.99;exitY=-0.02;entryX=0;entryY=0.5;rounded=0;" parent="1" source="THYy7DSmvDCBNUBpc2qu-123" target="THYy7DSmvDCBNUBpc2qu-150" edge="1">
          <mxGeometry relative="1" as="geometry">
            <Array as="points">
              <mxPoint x="880" y="1038" />
            </Array>
          </mxGeometry>
        </mxCell>
        <mxCell id="THYy7DSmvDCBNUBpc2qu-205" value="" style="curved=1;startArrow=none;endArrow=block;exitX=0.74;exitY=1;entryX=0;entryY=0.5;rounded=0;" parent="1" source="THYy7DSmvDCBNUBpc2qu-123" target="THYy7DSmvDCBNUBpc2qu-151" edge="1">
          <mxGeometry relative="1" as="geometry">
            <Array as="points">
              <mxPoint x="880" y="1163" />
            </Array>
          </mxGeometry>
        </mxCell>
        <mxCell id="THYy7DSmvDCBNUBpc2qu-206" value="" style="curved=1;startArrow=none;endArrow=block;exitX=1;exitY=0.5;entryX=0;entryY=0.5;rounded=0;" parent="1" source="THYy7DSmvDCBNUBpc2qu-126" target="THYy7DSmvDCBNUBpc2qu-152" edge="1">
          <mxGeometry relative="1" as="geometry">
            <Array as="points" />
          </mxGeometry>
        </mxCell>
        <mxCell id="THYy7DSmvDCBNUBpc2qu-207" value="" style="curved=1;startArrow=none;endArrow=block;exitX=1;exitY=0.51;entryX=0;entryY=0.51;rounded=0;" parent="1" source="THYy7DSmvDCBNUBpc2qu-127" target="THYy7DSmvDCBNUBpc2qu-153" edge="1">
          <mxGeometry relative="1" as="geometry">
            <Array as="points" />
          </mxGeometry>
        </mxCell>
        <mxCell id="THYy7DSmvDCBNUBpc2qu-208" value="" style="curved=1;startArrow=none;endArrow=block;exitX=1;exitY=0.49;entryX=0;entryY=0.49;rounded=0;" parent="1" source="THYy7DSmvDCBNUBpc2qu-128" target="THYy7DSmvDCBNUBpc2qu-154" edge="1">
          <mxGeometry relative="1" as="geometry">
            <Array as="points" />
          </mxGeometry>
        </mxCell>
        <mxCell id="WnuDe1Kw-8BFXofijUdE-1" value="系统开发流程" style="whiteSpace=wrap;strokeWidth=2;" vertex="1" parent="1">
          <mxGeometry x="343" y="2786" width="112" height="33" as="geometry" />
        </mxCell>
        <mxCell id="WnuDe1Kw-8BFXofijUdE-2" value="需求分析" style="whiteSpace=wrap;strokeWidth=2;" vertex="1" parent="1">
          <mxGeometry x="69" y="2869" width="80" height="33" as="geometry" />
        </mxCell>
        <mxCell id="WnuDe1Kw-8BFXofijUdE-3" value="访谈地理教师和学生" style="whiteSpace=wrap;strokeWidth=2;" vertex="1" parent="1">
          <mxGeometry x="29" y="2953" width="159" height="33" as="geometry" />
        </mxCell>
        <mxCell id="WnuDe1Kw-8BFXofijUdE-4" value="明确系统核心需求" style="whiteSpace=wrap;strokeWidth=2;" vertex="1" parent="1">
          <mxGeometry x="37" y="3036" width="144" height="33" as="geometry" />
        </mxCell>
        <mxCell id="WnuDe1Kw-8BFXofijUdE-5" value="细化功能模块" style="whiteSpace=wrap;strokeWidth=2;" vertex="1" parent="1">
          <mxGeometry x="53" y="3120" width="112" height="33" as="geometry" />
        </mxCell>
        <mxCell id="WnuDe1Kw-8BFXofijUdE-6" value="确定开发技术" style="whiteSpace=wrap;strokeWidth=2;" vertex="1" parent="1">
          <mxGeometry x="52" y="3203" width="113" height="33" as="geometry" />
        </mxCell>
        <mxCell id="WnuDe1Kw-8BFXofijUdE-7" value="系统设计" style="whiteSpace=wrap;strokeWidth=2;" vertex="1" parent="1">
          <mxGeometry x="270" y="2869" width="79" height="33" as="geometry" />
        </mxCell>
        <mxCell id="WnuDe1Kw-8BFXofijUdE-8" value="设计系统总体框架" style="whiteSpace=wrap;strokeWidth=2;" vertex="1" parent="1">
          <mxGeometry x="238" y="2953" width="144" height="33" as="geometry" />
        </mxCell>
        <mxCell id="WnuDe1Kw-8BFXofijUdE-9" value="模块化设计" style="whiteSpace=wrap;strokeWidth=2;" vertex="1" parent="1">
          <mxGeometry x="262" y="3036" width="96" height="33" as="geometry" />
        </mxCell>
        <mxCell id="WnuDe1Kw-8BFXofijUdE-10" value="设计用户交互方式" style="whiteSpace=wrap;strokeWidth=2;" vertex="1" parent="1">
          <mxGeometry x="238" y="3120" width="143" height="33" as="geometry" />
        </mxCell>
        <mxCell id="WnuDe1Kw-8BFXofijUdE-11" value="沉浸式体验设计" style="whiteSpace=wrap;strokeWidth=2;" vertex="1" parent="1">
          <mxGeometry x="246" y="3203" width="127" height="33" as="geometry" />
        </mxCell>
        <mxCell id="WnuDe1Kw-8BFXofijUdE-12" value="编码实现" style="whiteSpace=wrap;strokeWidth=2;" vertex="1" parent="1">
          <mxGeometry x="448" y="2869" width="80" height="33" as="geometry" />
        </mxCell>
        <mxCell id="WnuDe1Kw-8BFXofijUdE-13" value="选择开发平台" style="whiteSpace=wrap;strokeWidth=2;" vertex="1" parent="1">
          <mxGeometry x="432" y="2953" width="113" height="33" as="geometry" />
        </mxCell>
        <mxCell id="WnuDe1Kw-8BFXofijUdE-14" value="独立开发模块" style="whiteSpace=wrap;strokeWidth=2;" vertex="1" parent="1">
          <mxGeometry x="433" y="3036" width="111" height="33" as="geometry" />
        </mxCell>
        <mxCell id="WnuDe1Kw-8BFXofijUdE-15" value="接口集成" style="whiteSpace=wrap;strokeWidth=2;" vertex="1" parent="1">
          <mxGeometry x="448" y="3120" width="80" height="33" as="geometry" />
        </mxCell>
        <mxCell id="WnuDe1Kw-8BFXofijUdE-16" value="系统整合与调试" style="whiteSpace=wrap;strokeWidth=2;" vertex="1" parent="1">
          <mxGeometry x="424" y="3203" width="128" height="33" as="geometry" />
        </mxCell>
        <mxCell id="WnuDe1Kw-8BFXofijUdE-17" value="测试与调试" style="whiteSpace=wrap;strokeWidth=2;" vertex="1" parent="1">
          <mxGeometry x="627" y="2869" width="97" height="33" as="geometry" />
        </mxCell>
        <mxCell id="WnuDe1Kw-8BFXofijUdE-18" value="单元测试" style="whiteSpace=wrap;strokeWidth=2;" vertex="1" parent="1">
          <mxGeometry x="639" y="2953" width="80" height="33" as="geometry" />
        </mxCell>
        <mxCell id="WnuDe1Kw-8BFXofijUdE-19" value="集成测试" style="whiteSpace=wrap;strokeWidth=2;" vertex="1" parent="1">
          <mxGeometry x="639" y="3036" width="81" height="33" as="geometry" />
        </mxCell>
        <mxCell id="WnuDe1Kw-8BFXofijUdE-20" value="压力测试" style="whiteSpace=wrap;strokeWidth=2;" vertex="1" parent="1">
          <mxGeometry x="639" y="3120" width="80" height="33" as="geometry" />
        </mxCell>
        <mxCell id="WnuDe1Kw-8BFXofijUdE-21" value="代码优化" style="whiteSpace=wrap;strokeWidth=2;" vertex="1" parent="1">
          <mxGeometry x="639" y="3203" width="81" height="33" as="geometry" />
        </mxCell>
        <mxCell id="WnuDe1Kw-8BFXofijUdE-23" value="" style="curved=1;startArrow=none;endArrow=block;exitX=0;exitY=0.75;entryX=0.49;entryY=0.01;rounded=0;" edge="1" parent="1" source="WnuDe1Kw-8BFXofijUdE-1" target="WnuDe1Kw-8BFXofijUdE-2">
          <mxGeometry relative="1" as="geometry">
            <Array as="points">
              <mxPoint x="109" y="2844" />
            </Array>
          </mxGeometry>
        </mxCell>
        <mxCell id="WnuDe1Kw-8BFXofijUdE-24" value="" style="curved=1;startArrow=none;endArrow=block;exitX=0.49;exitY=1.02;entryX=0.5;entryY=-0.01;rounded=0;" edge="1" parent="1" source="WnuDe1Kw-8BFXofijUdE-2" target="WnuDe1Kw-8BFXofijUdE-3">
          <mxGeometry relative="1" as="geometry">
            <Array as="points" />
          </mxGeometry>
        </mxCell>
        <mxCell id="WnuDe1Kw-8BFXofijUdE-25" value="" style="curved=1;startArrow=none;endArrow=block;exitX=0.5;exitY=1.01;entryX=0.5;entryY=0.01;rounded=0;" edge="1" parent="1" source="WnuDe1Kw-8BFXofijUdE-3" target="WnuDe1Kw-8BFXofijUdE-4">
          <mxGeometry relative="1" as="geometry">
            <Array as="points" />
          </mxGeometry>
        </mxCell>
        <mxCell id="WnuDe1Kw-8BFXofijUdE-26" value="" style="curved=1;startArrow=none;endArrow=block;exitX=0.5;exitY=1.02;entryX=0.5;entryY=-0.01;rounded=0;" edge="1" parent="1" source="WnuDe1Kw-8BFXofijUdE-4" target="WnuDe1Kw-8BFXofijUdE-5">
          <mxGeometry relative="1" as="geometry">
            <Array as="points" />
          </mxGeometry>
        </mxCell>
        <mxCell id="WnuDe1Kw-8BFXofijUdE-27" value="" style="curved=1;startArrow=none;endArrow=block;exitX=0.5;exitY=1;entryX=0.5;entryY=0;rounded=0;" edge="1" parent="1" source="WnuDe1Kw-8BFXofijUdE-5" target="WnuDe1Kw-8BFXofijUdE-6">
          <mxGeometry relative="1" as="geometry">
            <Array as="points" />
          </mxGeometry>
        </mxCell>
        <mxCell id="WnuDe1Kw-8BFXofijUdE-28" value="" style="curved=1;startArrow=none;endArrow=block;exitX=0.18;exitY=1.01;entryX=0.51;entryY=0.01;rounded=0;" edge="1" parent="1" source="WnuDe1Kw-8BFXofijUdE-1" target="WnuDe1Kw-8BFXofijUdE-7">
          <mxGeometry relative="1" as="geometry">
            <Array as="points">
              <mxPoint x="310" y="2844" />
            </Array>
          </mxGeometry>
        </mxCell>
        <mxCell id="WnuDe1Kw-8BFXofijUdE-29" value="" style="curved=1;startArrow=none;endArrow=block;exitX=0.51;exitY=1.02;entryX=0.5;entryY=-0.01;rounded=0;" edge="1" parent="1" source="WnuDe1Kw-8BFXofijUdE-7" target="WnuDe1Kw-8BFXofijUdE-8">
          <mxGeometry relative="1" as="geometry">
            <Array as="points" />
          </mxGeometry>
        </mxCell>
        <mxCell id="WnuDe1Kw-8BFXofijUdE-30" value="" style="curved=1;startArrow=none;endArrow=block;exitX=0.5;exitY=1.01;entryX=0.5;entryY=0.01;rounded=0;" edge="1" parent="1" source="WnuDe1Kw-8BFXofijUdE-8" target="WnuDe1Kw-8BFXofijUdE-9">
          <mxGeometry relative="1" as="geometry">
            <Array as="points" />
          </mxGeometry>
        </mxCell>
        <mxCell id="WnuDe1Kw-8BFXofijUdE-31" value="" style="curved=1;startArrow=none;endArrow=block;exitX=0.5;exitY=1.02;entryX=0.5;entryY=-0.01;rounded=0;" edge="1" parent="1" source="WnuDe1Kw-8BFXofijUdE-9" target="WnuDe1Kw-8BFXofijUdE-10">
          <mxGeometry relative="1" as="geometry">
            <Array as="points" />
          </mxGeometry>
        </mxCell>
        <mxCell id="WnuDe1Kw-8BFXofijUdE-32" value="" style="curved=1;startArrow=none;endArrow=block;exitX=0.5;exitY=1;entryX=0.5;entryY=0;rounded=0;" edge="1" parent="1" source="WnuDe1Kw-8BFXofijUdE-10" target="WnuDe1Kw-8BFXofijUdE-11">
          <mxGeometry relative="1" as="geometry">
            <Array as="points" />
          </mxGeometry>
        </mxCell>
        <mxCell id="WnuDe1Kw-8BFXofijUdE-33" value="" style="curved=1;startArrow=none;endArrow=block;exitX=0.82;exitY=1.01;entryX=0.5;entryY=0.01;rounded=0;" edge="1" parent="1" source="WnuDe1Kw-8BFXofijUdE-1" target="WnuDe1Kw-8BFXofijUdE-12">
          <mxGeometry relative="1" as="geometry">
            <Array as="points">
              <mxPoint x="488" y="2844" />
            </Array>
          </mxGeometry>
        </mxCell>
        <mxCell id="WnuDe1Kw-8BFXofijUdE-34" value="" style="curved=1;startArrow=none;endArrow=block;exitX=0.5;exitY=1.02;entryX=0.5;entryY=-0.01;rounded=0;" edge="1" parent="1" source="WnuDe1Kw-8BFXofijUdE-12" target="WnuDe1Kw-8BFXofijUdE-13">
          <mxGeometry relative="1" as="geometry">
            <Array as="points" />
          </mxGeometry>
        </mxCell>
        <mxCell id="WnuDe1Kw-8BFXofijUdE-35" value="" style="curved=1;startArrow=none;endArrow=block;exitX=0.5;exitY=1.01;entryX=0.5;entryY=0.01;rounded=0;" edge="1" parent="1" source="WnuDe1Kw-8BFXofijUdE-13" target="WnuDe1Kw-8BFXofijUdE-14">
          <mxGeometry relative="1" as="geometry">
            <Array as="points" />
          </mxGeometry>
        </mxCell>
        <mxCell id="WnuDe1Kw-8BFXofijUdE-36" value="" style="curved=1;startArrow=none;endArrow=block;exitX=0.5;exitY=1.02;entryX=0.5;entryY=-0.01;rounded=0;" edge="1" parent="1" source="WnuDe1Kw-8BFXofijUdE-14" target="WnuDe1Kw-8BFXofijUdE-15">
          <mxGeometry relative="1" as="geometry">
            <Array as="points" />
          </mxGeometry>
        </mxCell>
        <mxCell id="WnuDe1Kw-8BFXofijUdE-37" value="" style="curved=1;startArrow=none;endArrow=block;exitX=0.5;exitY=1;entryX=0.5;entryY=0;rounded=0;" edge="1" parent="1" source="WnuDe1Kw-8BFXofijUdE-15" target="WnuDe1Kw-8BFXofijUdE-16">
          <mxGeometry relative="1" as="geometry">
            <Array as="points" />
          </mxGeometry>
        </mxCell>
        <mxCell id="WnuDe1Kw-8BFXofijUdE-38" value="" style="curved=1;startArrow=none;endArrow=block;exitX=1;exitY=0.74;entryX=0.49;entryY=0.01;rounded=0;" edge="1" parent="1" source="WnuDe1Kw-8BFXofijUdE-1" target="WnuDe1Kw-8BFXofijUdE-17">
          <mxGeometry relative="1" as="geometry">
            <Array as="points">
              <mxPoint x="686" y="2838" />
            </Array>
          </mxGeometry>
        </mxCell>
        <mxCell id="WnuDe1Kw-8BFXofijUdE-40" value="" style="curved=1;startArrow=none;endArrow=block;exitX=0.5;exitY=1.01;entryX=0.5;entryY=0.01;rounded=0;" edge="1" parent="1" source="WnuDe1Kw-8BFXofijUdE-18" target="WnuDe1Kw-8BFXofijUdE-19">
          <mxGeometry relative="1" as="geometry">
            <Array as="points" />
          </mxGeometry>
        </mxCell>
        <mxCell id="WnuDe1Kw-8BFXofijUdE-41" value="" style="curved=1;startArrow=none;endArrow=block;exitX=0.5;exitY=1.02;entryX=0.5;entryY=-0.01;rounded=0;" edge="1" parent="1" source="WnuDe1Kw-8BFXofijUdE-19" target="WnuDe1Kw-8BFXofijUdE-20">
          <mxGeometry relative="1" as="geometry">
            <Array as="points" />
          </mxGeometry>
        </mxCell>
        <mxCell id="WnuDe1Kw-8BFXofijUdE-42" value="" style="curved=1;startArrow=none;endArrow=block;exitX=0.5;exitY=1;entryX=0.5;entryY=0;rounded=0;" edge="1" parent="1" source="WnuDe1Kw-8BFXofijUdE-20" target="WnuDe1Kw-8BFXofijUdE-21">
          <mxGeometry relative="1" as="geometry">
            <Array as="points" />
          </mxGeometry>
        </mxCell>
        <mxCell id="WnuDe1Kw-8BFXofijUdE-44" value="" style="endArrow=classic;html=1;rounded=0;entryX=0.5;entryY=0;entryDx=0;entryDy=0;" edge="1" parent="1" target="WnuDe1Kw-8BFXofijUdE-18">
          <mxGeometry width="50" height="50" relative="1" as="geometry">
            <mxPoint x="679" y="2902" as="sourcePoint" />
            <mxPoint x="682" y="2945" as="targetPoint" />
          </mxGeometry>
        </mxCell>
        <mxCell id="WnuDe1Kw-8BFXofijUdE-45" value="系统开发流程" style="whiteSpace=wrap;strokeWidth=2;" vertex="1" parent="1">
          <mxGeometry x="20" y="4174" width="112" height="33" as="geometry" />
        </mxCell>
        <mxCell id="WnuDe1Kw-8BFXofijUdE-46" value="需求分析" style="whiteSpace=wrap;strokeWidth=2;" vertex="1" parent="1">
          <mxGeometry x="190" y="3382" width="80" height="33" as="geometry" />
        </mxCell>
        <mxCell id="WnuDe1Kw-8BFXofijUdE-47" value="与教师学生访谈" style="whiteSpace=wrap;strokeWidth=2;" vertex="1" parent="1">
          <mxGeometry x="394" y="3257" width="128" height="33" as="geometry" />
        </mxCell>
        <mxCell id="WnuDe1Kw-8BFXofijUdE-48" value="明确核心需求" style="whiteSpace=wrap;strokeWidth=2;" vertex="1" parent="1">
          <mxGeometry x="402" y="3340" width="112" height="33" as="geometry" />
        </mxCell>
        <mxCell id="WnuDe1Kw-8BFXofijUdE-49" value="细化功能模块" style="whiteSpace=wrap;strokeWidth=2;" vertex="1" parent="1">
          <mxGeometry x="402" y="3424" width="112" height="33" as="geometry" />
        </mxCell>
        <mxCell id="WnuDe1Kw-8BFXofijUdE-50" value="确定开发技术" style="whiteSpace=wrap;strokeWidth=2;" vertex="1" parent="1">
          <mxGeometry x="402" y="3507" width="113" height="33" as="geometry" />
        </mxCell>
        <mxCell id="WnuDe1Kw-8BFXofijUdE-51" value="系统设计" style="whiteSpace=wrap;strokeWidth=2;" vertex="1" parent="1">
          <mxGeometry x="191" y="3716" width="79" height="33" as="geometry" />
        </mxCell>
        <mxCell id="WnuDe1Kw-8BFXofijUdE-52" value="设计总体框架" style="whiteSpace=wrap;strokeWidth=2;" vertex="1" parent="1">
          <mxGeometry x="402" y="3591" width="112" height="33" as="geometry" />
        </mxCell>
        <mxCell id="WnuDe1Kw-8BFXofijUdE-53" value="划分功能模块" style="whiteSpace=wrap;strokeWidth=2;" vertex="1" parent="1">
          <mxGeometry x="402" y="3674" width="112" height="33" as="geometry" />
        </mxCell>
        <mxCell id="WnuDe1Kw-8BFXofijUdE-54" value="详细设计" style="whiteSpace=wrap;strokeWidth=2;" vertex="1" parent="1">
          <mxGeometry x="419" y="3757" width="79" height="33" as="geometry" />
        </mxCell>
        <mxCell id="WnuDe1Kw-8BFXofijUdE-55" value="考虑沉浸式体验" style="whiteSpace=wrap;strokeWidth=2;" vertex="1" parent="1">
          <mxGeometry x="394" y="3841" width="129" height="33" as="geometry" />
        </mxCell>
        <mxCell id="WnuDe1Kw-8BFXofijUdE-56" value="编码实现" style="whiteSpace=wrap;strokeWidth=2;" vertex="1" parent="1">
          <mxGeometry x="190" y="4174" width="80" height="33" as="geometry" />
        </mxCell>
        <mxCell id="WnuDe1Kw-8BFXofijUdE-57" value="选择虚幻引擎" style="whiteSpace=wrap;strokeWidth=2;" vertex="1" parent="1">
          <mxGeometry x="402" y="3924" width="112" height="33" as="geometry" />
        </mxCell>
        <mxCell id="WnuDe1Kw-8BFXofijUdE-58" value="使用C++编程" style="whiteSpace=wrap;strokeWidth=2;" vertex="1" parent="1">
          <mxGeometry x="405" y="4008" width="106" height="33" as="geometry" />
        </mxCell>
        <mxCell id="WnuDe1Kw-8BFXofijUdE-59" value="结合Maya建模" style="whiteSpace=wrap;strokeWidth=2;" vertex="1" parent="1">
          <mxGeometry x="400" y="4091" width="117" height="33" as="geometry" />
        </mxCell>
        <mxCell id="WnuDe1Kw-8BFXofijUdE-60" value="MySQL数据库" style="whiteSpace=wrap;strokeWidth=2;" vertex="1" parent="1">
          <mxGeometry x="403" y="4174" width="110" height="33" as="geometry" />
        </mxCell>
        <mxCell id="WnuDe1Kw-8BFXofijUdE-61" value="虚幻引擎UI设计" style="whiteSpace=wrap;strokeWidth=2;" vertex="1" parent="1">
          <mxGeometry x="395" y="4258" width="127" height="33" as="geometry" />
        </mxCell>
        <mxCell id="WnuDe1Kw-8BFXofijUdE-62" value="模块独立开发" style="whiteSpace=wrap;strokeWidth=2;" vertex="1" parent="1">
          <mxGeometry x="402" y="4341" width="112" height="33" as="geometry" />
        </mxCell>
        <mxCell id="WnuDe1Kw-8BFXofijUdE-63" value="接口集成" style="whiteSpace=wrap;strokeWidth=2;" vertex="1" parent="1">
          <mxGeometry x="418" y="4425" width="80" height="33" as="geometry" />
        </mxCell>
        <mxCell id="WnuDe1Kw-8BFXofijUdE-64" value="测试与调试" style="whiteSpace=wrap;strokeWidth=2;" vertex="1" parent="1">
          <mxGeometry x="182" y="4800" width="97" height="33" as="geometry" />
        </mxCell>
        <mxCell id="WnuDe1Kw-8BFXofijUdE-65" value="单元测试" style="whiteSpace=wrap;strokeWidth=2;" vertex="1" parent="1">
          <mxGeometry x="418" y="4508" width="80" height="33" as="geometry" />
        </mxCell>
        <mxCell id="WnuDe1Kw-8BFXofijUdE-66" value="集成测试" style="whiteSpace=wrap;strokeWidth=2;" vertex="1" parent="1">
          <mxGeometry x="418" y="4717" width="81" height="33" as="geometry" />
        </mxCell>
        <mxCell id="WnuDe1Kw-8BFXofijUdE-67" value="压力测试" style="whiteSpace=wrap;strokeWidth=2;" vertex="1" parent="1">
          <mxGeometry x="418" y="4883" width="80" height="33" as="geometry" />
        </mxCell>
        <mxCell id="WnuDe1Kw-8BFXofijUdE-68" value="测试内容" style="whiteSpace=wrap;strokeWidth=2;" vertex="1" parent="1">
          <mxGeometry x="418" y="5092" width="80" height="33" as="geometry" />
        </mxCell>
        <mxCell id="WnuDe1Kw-8BFXofijUdE-69" value="功能测试" style="whiteSpace=wrap;strokeWidth=2;" vertex="1" parent="1">
          <mxGeometry x="597" y="4425" width="81" height="33" as="geometry" />
        </mxCell>
        <mxCell id="WnuDe1Kw-8BFXofijUdE-70" value="接口测试" style="whiteSpace=wrap;strokeWidth=2;" vertex="1" parent="1">
          <mxGeometry x="597" y="4508" width="80" height="33" as="geometry" />
        </mxCell>
        <mxCell id="WnuDe1Kw-8BFXofijUdE-71" value="边界条件测试" style="whiteSpace=wrap;strokeWidth=2;" vertex="1" parent="1">
          <mxGeometry x="581" y="4591" width="112" height="33" as="geometry" />
        </mxCell>
        <mxCell id="WnuDe1Kw-8BFXofijUdE-72" value="数据传输测试" style="whiteSpace=wrap;strokeWidth=2;" vertex="1" parent="1">
          <mxGeometry x="581" y="4675" width="113" height="33" as="geometry" />
        </mxCell>
        <mxCell id="WnuDe1Kw-8BFXofijUdE-73" value="功能协同测试" style="whiteSpace=wrap;strokeWidth=2;" vertex="1" parent="1">
          <mxGeometry x="581" y="4758" width="113" height="33" as="geometry" />
        </mxCell>
        <mxCell id="WnuDe1Kw-8BFXofijUdE-74" value="响应速度测试" style="whiteSpace=wrap;strokeWidth=2;" vertex="1" parent="1">
          <mxGeometry x="581" y="4842" width="112" height="33" as="geometry" />
        </mxCell>
        <mxCell id="WnuDe1Kw-8BFXofijUdE-75" value="稳定性测试" style="whiteSpace=wrap;strokeWidth=2;" vertex="1" parent="1">
          <mxGeometry x="589" y="4925" width="97" height="33" as="geometry" />
        </mxCell>
        <mxCell id="WnuDe1Kw-8BFXofijUdE-76" value="功能完整性测试" style="whiteSpace=wrap;strokeWidth=2;" vertex="1" parent="1">
          <mxGeometry x="573" y="5008" width="129" height="33" as="geometry" />
        </mxCell>
        <mxCell id="WnuDe1Kw-8BFXofijUdE-77" value="用户体验测试" style="whiteSpace=wrap;strokeWidth=2;" vertex="1" parent="1">
          <mxGeometry x="581" y="5092" width="112" height="33" as="geometry" />
        </mxCell>
        <mxCell id="WnuDe1Kw-8BFXofijUdE-78" value="安全性测试" style="whiteSpace=wrap;strokeWidth=2;" vertex="1" parent="1">
          <mxGeometry x="589" y="5175" width="96" height="33" as="geometry" />
        </mxCell>
        <mxCell id="WnuDe1Kw-8BFXofijUdE-79" value="系统发布" style="whiteSpace=wrap;strokeWidth=2;" vertex="1" parent="1">
          <mxGeometry x="191" y="5259" width="79" height="33" as="geometry" />
        </mxCell>
        <mxCell id="WnuDe1Kw-8BFXofijUdE-80" value="发布系统" style="whiteSpace=wrap;strokeWidth=2;" vertex="1" parent="1">
          <mxGeometry x="418" y="5175" width="80" height="33" as="geometry" />
        </mxCell>
        <mxCell id="WnuDe1Kw-8BFXofijUdE-81" value="用户培训" style="whiteSpace=wrap;strokeWidth=2;" vertex="1" parent="1">
          <mxGeometry x="419" y="5259" width="79" height="33" as="geometry" />
        </mxCell>
        <mxCell id="WnuDe1Kw-8BFXofijUdE-82" value="收集反馈" style="whiteSpace=wrap;strokeWidth=2;" vertex="1" parent="1">
          <mxGeometry x="418" y="5342" width="80" height="33" as="geometry" />
        </mxCell>
        <mxCell id="WnuDe1Kw-8BFXofijUdE-83" value="" style="curved=1;startArrow=none;endArrow=block;exitX=0.51;exitY=0.01;entryX=0;entryY=0.51;rounded=0;" edge="1" parent="1" source="WnuDe1Kw-8BFXofijUdE-45" target="WnuDe1Kw-8BFXofijUdE-46">
          <mxGeometry relative="1" as="geometry">
            <Array as="points">
              <mxPoint x="157" y="3399" />
            </Array>
          </mxGeometry>
        </mxCell>
        <mxCell id="WnuDe1Kw-8BFXofijUdE-84" value="细化" style="curved=1;startArrow=none;endArrow=block;exitX=0.68;exitY=0;entryX=0;entryY=0.51;rounded=0;" edge="1" parent="1" source="WnuDe1Kw-8BFXofijUdE-46" target="WnuDe1Kw-8BFXofijUdE-47">
          <mxGeometry relative="1" as="geometry">
            <Array as="points">
              <mxPoint x="336" y="3274" />
            </Array>
          </mxGeometry>
        </mxCell>
        <mxCell id="WnuDe1Kw-8BFXofijUdE-85" value="明确" style="curved=1;startArrow=none;endArrow=block;exitX=1;exitY=0.03;entryX=0;entryY=0.52;rounded=0;" edge="1" parent="1" source="WnuDe1Kw-8BFXofijUdE-46" target="WnuDe1Kw-8BFXofijUdE-48">
          <mxGeometry relative="1" as="geometry">
            <Array as="points">
              <mxPoint x="336" y="3357" />
            </Array>
          </mxGeometry>
        </mxCell>
        <mxCell id="WnuDe1Kw-8BFXofijUdE-86" value="细化" style="curved=1;startArrow=none;endArrow=block;exitX=1;exitY=0.98;entryX=0;entryY=0.5;rounded=0;" edge="1" parent="1" source="WnuDe1Kw-8BFXofijUdE-46" target="WnuDe1Kw-8BFXofijUdE-49">
          <mxGeometry relative="1" as="geometry">
            <Array as="points">
              <mxPoint x="336" y="3441" />
            </Array>
          </mxGeometry>
        </mxCell>
        <mxCell id="WnuDe1Kw-8BFXofijUdE-87" value="确定" style="curved=1;startArrow=none;endArrow=block;exitX=0.68;exitY=1.02;entryX=0;entryY=0.51;rounded=0;" edge="1" parent="1" source="WnuDe1Kw-8BFXofijUdE-46" target="WnuDe1Kw-8BFXofijUdE-50">
          <mxGeometry relative="1" as="geometry">
            <Array as="points">
              <mxPoint x="336" y="3524" />
            </Array>
          </mxGeometry>
        </mxCell>
        <mxCell id="WnuDe1Kw-8BFXofijUdE-88" value="" style="curved=1;startArrow=none;endArrow=block;exitX=0.53;exitY=0.01;entryX=-0.01;entryY=0.5;rounded=0;" edge="1" parent="1" source="WnuDe1Kw-8BFXofijUdE-45" target="WnuDe1Kw-8BFXofijUdE-51">
          <mxGeometry relative="1" as="geometry">
            <Array as="points">
              <mxPoint x="157" y="3732" />
            </Array>
          </mxGeometry>
        </mxCell>
        <mxCell id="WnuDe1Kw-8BFXofijUdE-89" value="设计" style="curved=1;startArrow=none;endArrow=block;exitX=0.67;exitY=-0.01;entryX=0;entryY=0.49;rounded=0;" edge="1" parent="1" source="WnuDe1Kw-8BFXofijUdE-51" target="WnuDe1Kw-8BFXofijUdE-52">
          <mxGeometry relative="1" as="geometry">
            <Array as="points">
              <mxPoint x="336" y="3607" />
            </Array>
          </mxGeometry>
        </mxCell>
        <mxCell id="WnuDe1Kw-8BFXofijUdE-90" value="划分" style="curved=1;startArrow=none;endArrow=block;exitX=0.99;exitY=0.03;entryX=0;entryY=0.51;rounded=0;" edge="1" parent="1" source="WnuDe1Kw-8BFXofijUdE-51" target="WnuDe1Kw-8BFXofijUdE-53">
          <mxGeometry relative="1" as="geometry">
            <Array as="points">
              <mxPoint x="336" y="3691" />
            </Array>
          </mxGeometry>
        </mxCell>
        <mxCell id="WnuDe1Kw-8BFXofijUdE-91" value="详细设计" style="curved=1;startArrow=none;endArrow=block;exitX=0.99;exitY=0.97;entryX=0;entryY=0.52;rounded=0;" edge="1" parent="1" source="WnuDe1Kw-8BFXofijUdE-51" target="WnuDe1Kw-8BFXofijUdE-54">
          <mxGeometry relative="1" as="geometry">
            <Array as="points">
              <mxPoint x="336" y="3774" />
            </Array>
          </mxGeometry>
        </mxCell>
        <mxCell id="WnuDe1Kw-8BFXofijUdE-92" value="考虑" style="curved=1;startArrow=none;endArrow=block;exitX=0.67;exitY=1;entryX=0;entryY=0.5;rounded=0;" edge="1" parent="1" source="WnuDe1Kw-8BFXofijUdE-51" target="WnuDe1Kw-8BFXofijUdE-55">
          <mxGeometry relative="1" as="geometry">
            <Array as="points">
              <mxPoint x="336" y="3858" />
            </Array>
          </mxGeometry>
        </mxCell>
        <mxCell id="WnuDe1Kw-8BFXofijUdE-93" value="" style="curved=1;startArrow=none;endArrow=block;exitX=1;exitY=0.52;entryX=0;entryY=0.52;rounded=0;" edge="1" parent="1" source="WnuDe1Kw-8BFXofijUdE-45" target="WnuDe1Kw-8BFXofijUdE-56">
          <mxGeometry relative="1" as="geometry">
            <Array as="points" />
          </mxGeometry>
        </mxCell>
        <mxCell id="WnuDe1Kw-8BFXofijUdE-94" value="选择" style="curved=1;startArrow=none;endArrow=block;exitX=0.59;exitY=0.01;entryX=0;entryY=0.51;rounded=0;" edge="1" parent="1" source="WnuDe1Kw-8BFXofijUdE-56" target="WnuDe1Kw-8BFXofijUdE-57">
          <mxGeometry relative="1" as="geometry">
            <Array as="points">
              <mxPoint x="336" y="3941" />
            </Array>
          </mxGeometry>
        </mxCell>
        <mxCell id="WnuDe1Kw-8BFXofijUdE-95" value="编程" style="curved=1;startArrow=none;endArrow=block;exitX=0.63;exitY=0.01;entryX=0;entryY=0.49;rounded=0;" edge="1" parent="1" source="WnuDe1Kw-8BFXofijUdE-56" target="WnuDe1Kw-8BFXofijUdE-58">
          <mxGeometry relative="1" as="geometry">
            <Array as="points">
              <mxPoint x="336" y="4024" />
            </Array>
          </mxGeometry>
        </mxCell>
        <mxCell id="WnuDe1Kw-8BFXofijUdE-96" value="建模" style="curved=1;startArrow=none;endArrow=block;exitX=0.77;exitY=0.01;entryX=0;entryY=0.51;rounded=0;" edge="1" parent="1" source="WnuDe1Kw-8BFXofijUdE-56" target="WnuDe1Kw-8BFXofijUdE-59">
          <mxGeometry relative="1" as="geometry">
            <Array as="points">
              <mxPoint x="336" y="4108" />
            </Array>
          </mxGeometry>
        </mxCell>
        <mxCell id="WnuDe1Kw-8BFXofijUdE-97" value="数据库" style="curved=1;startArrow=none;endArrow=block;exitX=1;exitY=0.52;entryX=0;entryY=0.52;rounded=0;" edge="1" parent="1" source="WnuDe1Kw-8BFXofijUdE-56" target="WnuDe1Kw-8BFXofijUdE-60">
          <mxGeometry relative="1" as="geometry">
            <Array as="points" />
          </mxGeometry>
        </mxCell>
        <mxCell id="WnuDe1Kw-8BFXofijUdE-98" value="界面设计" style="curved=1;startArrow=none;endArrow=block;exitX=0.77;exitY=1.02;entryX=0;entryY=0.5;rounded=0;" edge="1" parent="1" source="WnuDe1Kw-8BFXofijUdE-56" target="WnuDe1Kw-8BFXofijUdE-61">
          <mxGeometry relative="1" as="geometry">
            <Array as="points">
              <mxPoint x="336" y="4275" />
            </Array>
          </mxGeometry>
        </mxCell>
        <mxCell id="WnuDe1Kw-8BFXofijUdE-99" value="独立开发" style="curved=1;startArrow=none;endArrow=block;exitX=0.63;exitY=1.02;entryX=0;entryY=0.51;rounded=0;" edge="1" parent="1" source="WnuDe1Kw-8BFXofijUdE-56" target="WnuDe1Kw-8BFXofijUdE-62">
          <mxGeometry relative="1" as="geometry">
            <Array as="points">
              <mxPoint x="336" y="4358" />
            </Array>
          </mxGeometry>
        </mxCell>
        <mxCell id="WnuDe1Kw-8BFXofijUdE-100" value="集成" style="curved=1;startArrow=none;endArrow=block;exitX=0.59;exitY=1.02;entryX=0.01;entryY=0.49;rounded=0;" edge="1" parent="1" source="WnuDe1Kw-8BFXofijUdE-56" target="WnuDe1Kw-8BFXofijUdE-63">
          <mxGeometry relative="1" as="geometry">
            <Array as="points">
              <mxPoint x="336" y="4441" />
            </Array>
          </mxGeometry>
        </mxCell>
        <mxCell id="WnuDe1Kw-8BFXofijUdE-101" value="" style="curved=1;startArrow=none;endArrow=block;exitX=0.52;exitY=1.02;entryX=0;entryY=0.5;rounded=0;" edge="1" parent="1" source="WnuDe1Kw-8BFXofijUdE-45" target="WnuDe1Kw-8BFXofijUdE-64">
          <mxGeometry relative="1" as="geometry">
            <Array as="points">
              <mxPoint x="157" y="4817" />
            </Array>
          </mxGeometry>
        </mxCell>
        <mxCell id="WnuDe1Kw-8BFXofijUdE-102" value="单元测试" style="curved=1;startArrow=none;endArrow=block;exitX=0.56;exitY=0;entryX=0.01;entryY=0.51;rounded=0;" edge="1" parent="1" source="WnuDe1Kw-8BFXofijUdE-64" target="WnuDe1Kw-8BFXofijUdE-65">
          <mxGeometry relative="1" as="geometry">
            <Array as="points">
              <mxPoint x="336" y="4525" />
            </Array>
          </mxGeometry>
        </mxCell>
        <mxCell id="WnuDe1Kw-8BFXofijUdE-103" value="集成测试" style="curved=1;startArrow=none;endArrow=block;exitX=0.71;exitY=0;entryX=0;entryY=0.49;rounded=0;" edge="1" parent="1" source="WnuDe1Kw-8BFXofijUdE-64" target="WnuDe1Kw-8BFXofijUdE-66">
          <mxGeometry relative="1" as="geometry">
            <Array as="points">
              <mxPoint x="336" y="4733" />
            </Array>
          </mxGeometry>
        </mxCell>
        <mxCell id="WnuDe1Kw-8BFXofijUdE-104" value="压力测试" style="curved=1;startArrow=none;endArrow=block;exitX=0.71;exitY=1.01;entryX=0.01;entryY=0.52;rounded=0;" edge="1" parent="1" source="WnuDe1Kw-8BFXofijUdE-64" target="WnuDe1Kw-8BFXofijUdE-67">
          <mxGeometry relative="1" as="geometry">
            <Array as="points">
              <mxPoint x="336" y="4900" />
            </Array>
          </mxGeometry>
        </mxCell>
        <mxCell id="WnuDe1Kw-8BFXofijUdE-105" value="测试内容" style="curved=1;startArrow=none;endArrow=block;exitX=0.56;exitY=1.01;entryX=0.01;entryY=0.5;rounded=0;" edge="1" parent="1" source="WnuDe1Kw-8BFXofijUdE-64" target="WnuDe1Kw-8BFXofijUdE-68">
          <mxGeometry relative="1" as="geometry">
            <Array as="points">
              <mxPoint x="336" y="5109" />
            </Array>
          </mxGeometry>
        </mxCell>
        <mxCell id="WnuDe1Kw-8BFXofijUdE-106" value="" style="curved=1;startArrow=none;endArrow=block;exitX=0.73;exitY=0;entryX=0;entryY=0.49;rounded=0;" edge="1" parent="1" source="WnuDe1Kw-8BFXofijUdE-65" target="WnuDe1Kw-8BFXofijUdE-69">
          <mxGeometry relative="1" as="geometry">
            <Array as="points">
              <mxPoint x="548" y="4441" />
            </Array>
          </mxGeometry>
        </mxCell>
        <mxCell id="WnuDe1Kw-8BFXofijUdE-107" value="" style="curved=1;startArrow=none;endArrow=block;exitX=1;exitY=0.51;entryX=0;entryY=0.51;rounded=0;" edge="1" parent="1" source="WnuDe1Kw-8BFXofijUdE-65" target="WnuDe1Kw-8BFXofijUdE-70">
          <mxGeometry relative="1" as="geometry">
            <Array as="points" />
          </mxGeometry>
        </mxCell>
        <mxCell id="WnuDe1Kw-8BFXofijUdE-108" value="" style="curved=1;startArrow=none;endArrow=block;exitX=0.73;exitY=1.01;entryX=0;entryY=0.52;rounded=0;" edge="1" parent="1" source="WnuDe1Kw-8BFXofijUdE-65" target="WnuDe1Kw-8BFXofijUdE-71">
          <mxGeometry relative="1" as="geometry">
            <Array as="points">
              <mxPoint x="548" y="4608" />
            </Array>
          </mxGeometry>
        </mxCell>
        <mxCell id="WnuDe1Kw-8BFXofijUdE-109" value="" style="curved=1;startArrow=none;endArrow=block;exitX=0.94;exitY=-0.02;entryX=0;entryY=0.5;rounded=0;" edge="1" parent="1" source="WnuDe1Kw-8BFXofijUdE-66" target="WnuDe1Kw-8BFXofijUdE-72">
          <mxGeometry relative="1" as="geometry">
            <Array as="points">
              <mxPoint x="548" y="4692" />
            </Array>
          </mxGeometry>
        </mxCell>
        <mxCell id="WnuDe1Kw-8BFXofijUdE-110" value="" style="curved=1;startArrow=none;endArrow=block;exitX=0.94;exitY=1;entryX=0;entryY=0.51;rounded=0;" edge="1" parent="1" source="WnuDe1Kw-8BFXofijUdE-66" target="WnuDe1Kw-8BFXofijUdE-73">
          <mxGeometry relative="1" as="geometry">
            <Array as="points">
              <mxPoint x="548" y="4775" />
            </Array>
          </mxGeometry>
        </mxCell>
        <mxCell id="WnuDe1Kw-8BFXofijUdE-111" value="" style="curved=1;startArrow=none;endArrow=block;exitX=0.95;exitY=0.01;entryX=0;entryY=0.49;rounded=0;" edge="1" parent="1" source="WnuDe1Kw-8BFXofijUdE-67" target="WnuDe1Kw-8BFXofijUdE-74">
          <mxGeometry relative="1" as="geometry">
            <Array as="points">
              <mxPoint x="548" y="4858" />
            </Array>
          </mxGeometry>
        </mxCell>
        <mxCell id="WnuDe1Kw-8BFXofijUdE-112" value="" style="curved=1;startArrow=none;endArrow=block;exitX=0.95;exitY=1.02;entryX=0;entryY=0.51;rounded=0;" edge="1" parent="1" source="WnuDe1Kw-8BFXofijUdE-67" target="WnuDe1Kw-8BFXofijUdE-75">
          <mxGeometry relative="1" as="geometry">
            <Array as="points">
              <mxPoint x="548" y="4942" />
            </Array>
          </mxGeometry>
        </mxCell>
        <mxCell id="WnuDe1Kw-8BFXofijUdE-113" value="" style="curved=1;startArrow=none;endArrow=block;exitX=0.73;exitY=-0.01;entryX=0;entryY=0.52;rounded=0;" edge="1" parent="1" source="WnuDe1Kw-8BFXofijUdE-68" target="WnuDe1Kw-8BFXofijUdE-76">
          <mxGeometry relative="1" as="geometry">
            <Array as="points">
              <mxPoint x="548" y="5025" />
            </Array>
          </mxGeometry>
        </mxCell>
        <mxCell id="WnuDe1Kw-8BFXofijUdE-114" value="" style="curved=1;startArrow=none;endArrow=block;exitX=1;exitY=0.5;entryX=0;entryY=0.5;rounded=0;" edge="1" parent="1" source="WnuDe1Kw-8BFXofijUdE-68" target="WnuDe1Kw-8BFXofijUdE-77">
          <mxGeometry relative="1" as="geometry">
            <Array as="points" />
          </mxGeometry>
        </mxCell>
        <mxCell id="WnuDe1Kw-8BFXofijUdE-115" value="" style="curved=1;startArrow=none;endArrow=block;exitX=0.73;exitY=1.01;entryX=0;entryY=0.51;rounded=0;" edge="1" parent="1" source="WnuDe1Kw-8BFXofijUdE-68" target="WnuDe1Kw-8BFXofijUdE-78">
          <mxGeometry relative="1" as="geometry">
            <Array as="points">
              <mxPoint x="548" y="5192" />
            </Array>
          </mxGeometry>
        </mxCell>
        <mxCell id="WnuDe1Kw-8BFXofijUdE-116" value="" style="curved=1;startArrow=none;endArrow=block;exitX=0.51;exitY=1.02;entryX=-0.01;entryY=0.49;rounded=0;" edge="1" parent="1" source="WnuDe1Kw-8BFXofijUdE-45" target="WnuDe1Kw-8BFXofijUdE-79">
          <mxGeometry relative="1" as="geometry">
            <Array as="points">
              <mxPoint x="157" y="5275" />
            </Array>
          </mxGeometry>
        </mxCell>
        <mxCell id="WnuDe1Kw-8BFXofijUdE-117" value="" style="curved=1;startArrow=none;endArrow=block;exitX=0.76;exitY=-0.01;entryX=0.01;entryY=0.51;rounded=0;" edge="1" parent="1" source="WnuDe1Kw-8BFXofijUdE-79" target="WnuDe1Kw-8BFXofijUdE-80">
          <mxGeometry relative="1" as="geometry">
            <Array as="points">
              <mxPoint x="336" y="5192" />
            </Array>
          </mxGeometry>
        </mxCell>
        <mxCell id="WnuDe1Kw-8BFXofijUdE-118" value="" style="curved=1;startArrow=none;endArrow=block;exitX=0.99;exitY=0.49;entryX=0;entryY=0.49;rounded=0;" edge="1" parent="1" source="WnuDe1Kw-8BFXofijUdE-79" target="WnuDe1Kw-8BFXofijUdE-81">
          <mxGeometry relative="1" as="geometry">
            <Array as="points" />
          </mxGeometry>
        </mxCell>
        <mxCell id="WnuDe1Kw-8BFXofijUdE-119" value="" style="curved=1;startArrow=none;endArrow=block;exitX=0.76;exitY=1;entryX=0.01;entryY=0.51;rounded=0;" edge="1" parent="1" source="WnuDe1Kw-8BFXofijUdE-79" target="WnuDe1Kw-8BFXofijUdE-82">
          <mxGeometry relative="1" as="geometry">
            <Array as="points">
              <mxPoint x="336" y="5359" />
            </Array>
          </mxGeometry>
        </mxCell>
      </root>
    </mxGraphModel>
  </diagram>
</mxfile>
